<?xml version="1.0" standalone="no"?>
<!DOCTYPE svg PUBLIC "-//W3C//DTD SVG 20010904//EN"
 "http://www.w3.org/TR/2001/REC-SVG-20010904/DTD/svg10.dtd">
<svg version="1.0" xmlns="http://www.w3.org/2000/svg"
 width="721.000000pt" height="721.000000pt" viewBox="0 0 721.000000 721.000000"
 preserveAspectRatio="xMidYMid meet">
<metadata>
Created by potrace 1.14, written by Peter Selinger 2001-2017
</metadata>
<g transform="translate(0.000000,721.000000) scale(0.100000,-0.100000)"
fill="#000000" stroke="none">
<path d="M2958 7084 c-2 -1 -109 -5 -238 -9 -129 -3 -271 -8 -315 -10 -204
-11 -299 -14 -420 -16 -71 0 -154 -3 -182 -6 l-53 -6 0 -1721 0 -1721 -54 -40
c-195 -144 -284 -286 -273 -435 9 -130 77 -218 271 -351 l66 -44 0 -551 0
-551 53 -46 c28 -25 97 -82 152 -127 102 -84 129 -107 207 -171 67 -57 590
-490 634 -526 22 -18 56 -46 75 -62 19 -16 120 -99 224 -186 105 -86 201 -167
215 -179 14 -11 48 -39 75 -61 28 -22 52 -43 55 -46 13 -17 254 -209 261 -209
5 0 37 24 71 53 35 29 75 62 90 73 15 12 51 41 80 66 58 50 319 268 391 328
17 14 74 61 126 105 53 44 104 87 115 95 10 8 23 20 30 25 6 6 108 91 226 189
213 177 246 205 385 321 87 73 111 93 292 243 l142 117 0 2708 1 2707 -37 1
c-21 0 -83 2 -138 4 -55 2 -183 6 -285 9 -462 15 -542 18 -645 22 -113 5
-1593 13 -1597 8z"/>
</g>
</svg>
